<svg xmlns="http://www.w3.org/2000/svg" width="900" height="300" viewBox="0 0 900 300"><defs><linearGradient id="p" x2="0" y2="1"><stop stop-color="#fdac80"/><stop offset=".5" stop-color="#e6603b"/><stop offset="1" stop-color="#6d2520"/></linearGradient></defs><path d="M60 185L80 143 235 125 330 65 510 65 625 132 795 154 850 192 841 245 762 245A62 62 0 0 0 638 245H262A62 62 0 0 0 138 245H65Z" fill="url(#p)" stroke="#161d27" stroke-width="6"/><path d="M260 127L338 78H402V127ZM418 78H507L594 128H418Z" fill="#26394b"/><path d="M410 145V223M610 146L626 223M271 233H628" fill="none" stroke="#602c30" stroke-width="4"/><path d="M441 155H470" stroke="#222936" stroke-width="6"/><path d="M809 177L841 192 836 204 809 199" fill="#ffe9ad"/><path d="M71 163L96 154V179H66" fill="#e14c4c"/><path d="M270 142L783 170" stroke="#ffc3a0" fill="none" stroke-width="4"/></svg>
